<?xml version="1.0" encoding="UTF-8"?>
<svg xmlns="http://www.w3.org/2000/svg" xmlns:xlink="http://www.w3.org/1999/xlink" viewBox="0 0 48 48" width="48px" height="48px">
<g id="surface12842582">
<path style=" stroke:none;fill-rule:nonzero;fill:rgb(58.431375%,64.705884%,65.098041%);fill-opacity:1;" d="M 29.179688 31.988281 L 32.007812 29.160156 L 44.03125 41.183594 L 41.203125 44.011719 Z M 29.179688 31.988281 "/>
<path style=" stroke:none;fill-rule:nonzero;fill:rgb(58.431375%,64.705884%,65.098041%);fill-opacity:1;" d="M 20 4 C 11.164062 4 4 11.164062 4 20 C 4 28.835938 11.164062 36 20 36 C 28.835938 36 36 28.835938 36 20 C 36 11.164062 28.835938 4 20 4 Z M 20 4 "/>
<path style=" stroke:none;fill-rule:nonzero;fill:rgb(40.000001%,40.000001%,40.000001%);fill-opacity:1;" d="M 32.457031 35.339844 L 35.285156 32.511719 L 43.980469 41.210938 L 41.152344 44.039062 Z M 32.457031 35.339844 "/>
<path style=" stroke:none;fill-rule:nonzero;fill:rgb(80.000001%,80.000001%,80.000001%);fill-opacity:1;" d="M 20 7 C 12.820312 7 7 12.820312 7 20 C 7 27.179688 12.820312 33 20 33 C 27.179688 33 33 27.179688 33 20 C 33 12.820312 27.179688 7 20 7 Z M 20 7 "/>
<path style=" stroke:none;fill-rule:nonzero;fill:rgb(92.54902%,94.117647%,94.509804%);fill-opacity:1;" d="M 26.898438 14.199219 C 25.199219 12.199219 22.699219 11 20 11 C 17.300781 11 14.800781 12.199219 13.101562 14.199219 C 12.699219 14.601562 12.800781 15.300781 13.199219 15.601562 C 13.601562 16 14.300781 15.898438 14.601562 15.5 C 16 13.898438 17.898438 13 20 13 C 22.101562 13 24 13.898438 25.398438 15.5 C 25.601562 15.699219 25.898438 15.898438 26.199219 15.898438 C 26.398438 15.898438 26.699219 15.800781 26.800781 15.699219 C 27.199219 15.300781 27.199219 14.601562 26.898438 14.199219 Z M 26.898438 14.199219 "/>
</g>
</svg>
